PathFileType	4	(X/Y/Z)	E:\Qualisys_Data\Carbon_Farble_Plate\Data\Amateur_Runner\S14\T1\S14T1V12_c3d.trc
DataRate	CameraRate	NumFrames	NumMarkers	Units	OrigDataRate	OrigDataStartFrame	OrigNumFrames
200.000000	200.000000	4	39	mm	200.000000	253	338
Frame#	Time	LSHO			RSHO			LICST			RICST			LASIS			LHEEL			RASIS			LTROC			RTROC			SACR			LTH1			LSK4			LTH2			LTH3			RHM5			LSK2			LTH4			RTH1			LTOE			RTH2			RTH3			RTH4			LLEP			RLEP			LSK1			LSK3			RSK1			LHM5			RSK2			LFT1			RSK3			RSK4			LLME			RLME			RTOE			RHEEL			RFT1			RFT2			LFT2			
		X1	Y1	Z1	X2	Y2	Z2	X3	Y3	Z3	X4	Y4	Z4	X5	Y5	Z5	X6	Y6	Z6	X7	Y7	Z7	X8	Y8	Z8	X9	Y9	Z9	X10	Y10	Z10	X11	Y11	Z11	X12	Y12	Z12	X13	Y13	Z13	X14	Y14	Z14	X15	Y15	Z15	X16	Y16	Z16	X17	Y17	Z17	X18	Y18	Z18	X19	Y19	Z19	X20	Y20	Z20	X21	Y21	Z21	X22	Y22	Z22	X23	Y23	Z23	X24	Y24	Z24	X25	Y25	Z25	X26	Y26	Z26	X27	Y27	Z27	X28	Y28	Z28	X29	Y29	Z29	X30	Y30	Z30	X31	Y31	Z31	X32	Y32	Z32	X33	Y33	Z33	X34	Y34	Z34	X35	Y35	Z35	X36	Y36	Z36	X37	Y37	Z37	X38	Y38	Z38	X39	Y39	Z39	

254	1.265	1604.098388671875	1439.231201171875	-517.4666137695312	1706.640747070312	1438.83544921875	-241.4936370849609	1628.131225585938	981.5147705078124	-483.7609252929688	1674.754028320312	992.6136474609376	-214.2046813964844	1674.755493164062	934.8585815429688	-459.171875	1734.02783203125	67.56719207763672	-345.8144226074219	1695.927490234375	947.5635986328124	-231.3923187255859	1539.4912109375	854.7266235351562	-490.3898620605469	1545.032592773438	905.4581298828124	-165.753173828125	1513.700439453125	988.9364624023438	-340.6713256835938	1695.615356445312	646.8096313476562	-493.7082824707031	1706.076049804688	272.4697875976562	-430.2420959472656	1627.17724609375	622.7017822265625	-463.6788330078125	1741.312622070312	562.5675048828125	-464.032958984375	1086.875854492188	282.09423828125	-196.0549926757812	1694.41552734375	370.2181701660156	-449.1712646484375	1668.188354492188	536.0888671875	-444.4809875488281	1631.41455078125	643.79345703125	-171.7542877197266	1982.426513671875	115.9252548217773	-397.8768310546875	1556.472045898438	661.0284423828125	-156.3414611816406	1611.328857421875	544.5554809570312	-188.6593627929688	1530.285278320312	562.959716796875	-170.5963134765625	1738.441040039062	488.4060363769531	-454.6518249511719	1525.632934570312	494.5253295898438	-176.5706329345703	1775.664184570312	379.1887817382812	-454.2424621582031	1785.96435546875	278.8247680664062	-438.4085388183594	1427.263305664062	427.7401428222656	-177.9300689697266	1916.878784179688	74.41909790039062	-446.1512145996094	1401.000854492188	509.9599609375	-178.3883972167969	1753.462158203125	47.8459358215332	-318.2253112792969	1327.270751953125	404.2305603027344	-196.8452301025391	1310.702270507812	481.8104553222656	-198.4699249267578	1778.09130859375	98.10648345947266	-409.6192016601562	1153.921997070312	410.9456176757812	-229.1023101806641	1104.014404296875	203.2957153320312	-246.3107147216797	1136.349243164062	456.5039978027344	-294.5995788574219	1111.928100585938	438.8986511230469	-324.8739624023438	1110.091674804688	460.4384155273438	-269.3128662109375	1739.441284179688	38.53777694702148	-370.993896484375
255	1.27	1621.567626953125	1432.987670898438	-518.9021606445312	1721.576416015625	1433.542114257812	-241.7439727783203	1643.453369140625	976.1197509765624	-483.9631958007812	1690.46923828125	987.2640380859376	-214.6992492675781	1690.264404296875	929.72265625	-459.7991943359375	1738.858642578125	66.05068969726562	-345.2332153320312	1711.467529296875	942.2023315429688	-231.9982604980469	1554.433227539062	849.350830078125	-489.7633056640625	1561.49560546875	899.3231811523438	-165.5497741699219	1529.344116210938	984.129638671875	-340.5174865722656	1712.271240234375	642.4901733398438	-492.1210327148438	1717.791015625	267.9862060546875	-429.7811279296875	1643.389892578125	617.7597045898438	-464.4792175292969	1757.511108398438	558.3916015625	-463.5936584472656	1107.709350585938	284.0986633300781	-196.7945251464844	1708.28076171875	365.9306335449219	-449.7278137207031	1684.723754882812	531.01025390625	-444.6274719238281	1651.746826171875	638.2183837890625	-171.8914642333984	1989.61474609375	101.4565048217773	-394.2059936523438	1576.585205078125	654.4669189453125	-155.8978881835938	1633.363403320312	538.4932861328125	-188.5651550292969	1551.985107421875	556.0025024414062	-169.9216003417969	1754.732421875	483.6051330566406	-454.1890563964844	1548.560302734375	487.5406799316406	-176.4745178222656	1789.619995117188	373.375732421875	-453.1198425292969	1797.964721679688	272.9770812988281	-436.48583984375	1449.72998046875	423.199951171875	-178.0324096679688	1922.508422851562	63.08597183227539	-442.869384765625	1425.35595703125	505.4871826171875	-177.7700042724609	1757.2705078125	45.10276794433594	-317.9683227539062	1349.448852539062	400.9533081054688	-198.2855224609375	1334.598266601562	479.5531616210938	-198.2610778808594	1784.714965820312	92.9304428100586	-408.0107727050781	1176.217407226562	412.4529418945312	-229.4422912597656	1124.170532226562	205.5312042236328	-247.0809478759766	1160.107666015625	458.8829345703125	-293.5159301757812	1134.47265625	441.15869140625	-324.8770446777344	1133.91796875	462.5580139160156	-268.4124450683594	1742.820556640625	37.67578125	-370.6348571777344
256	1.275	1638.524536132812	1426.591064453125	-520.453857421875	1736.423706054688	1428.269165039062	-242.2732391357422	1658.928588867188	970.6742553710938	-484.3109436035156	1706.327758789062	981.6838989257812	-214.7506713867188	1705.529174804688	924.9255981445312	-460.8134765625	1742.94677734375	65.38685607910156	-344.8614196777344	1727.478637695312	936.78466796875	-232.3737640380859	1569.403564453125	843.9069213867188	-489.3794860839844	1578.385375976562	892.842529296875	-165.1958770751953	1544.814575195312	978.6864624023438	-340.1549072265625	1728.536376953125	638.252685546875	-491.5018005371094	1729.234497070312	264.0372619628906	-428.9692993164062	1659.829467773438	612.5770263671875	-465.023681640625	1774.104370117188	553.8060913085938	-463.2481994628906	1129.144897460938	285.5817565917969	-197.8590087890625	1722.384155273438	361.8202819824219	-449.7263488769531	1701.24169921875	526.1182250976562	-445.2421264648438	1672.291748046875	632.7973022460938	-171.9274139404297	1997.206420898438	87.57682037353516	-390.302001953125	1597.114624023438	647.7009887695312	-155.8842010498047	1655.666015625	532.764404296875	-188.1596984863281	1574.247192382812	548.530029296875	-169.7509765625	1770.62646484375	478.9946899414062	-453.9862670898438	1572.068969726562	481.6197814941406	-175.4123077392578	1804.252075195312	368.2856140136719	-452.2868041992188	1809.832641601562	267.499267578125	-434.7387084960938	1473.039672851562	418.138427734375	-177.7448425292969	1928.026000976562	53.83766937255859	-440.8078308105469	1450.048095703125	501.0140686035156	-177.0741577148438	1759.893798828125	43.49745178222656	-317.6458740234375	1372.291259765625	398.0381774902344	-198.4883422851562	1358.58740234375	476.9494323730469	-198.0627593994141	1790.6884765625	89.04283905029297	-407.0567932128906	1199.3017578125	413.3747253417969	-229.6369476318359	1145.088989257812	207.4044952392578	-247.6992950439453	1183.354614257812	460.5149536132812	-293.7427673339844	1157.720947265625	443.2669677734375	-325.1194152832031	1157.328125	464.220703125	-268.3213500976562	1745.579956054688	36.66597366333008	-370.210205078125
257	1.28	1656.364013671875	1419.876342773438	-522.4140014648438	1751.491333007812	1422.46826171875	-242.6839294433594	1673.426025390625	965.5982666015624	-485.1443176269531	1721.932983398438	976.0274658203124	-214.7860260009766	1720.475830078125	919.7318725585938	-461.2218627929688	1746.296630859375	64.69473266601562	-344.5171508789062	1743.1396484375	931.0782470703124	-232.9781646728516	1584.326049804688	838.2699584960938	-489.3045043945312	1594.782470703125	886.293701171875	-165.2159118652344	1560.009155273438	973.0477905273438	-339.9579467773438	1744.793579101562	633.9512329101562	-491.34619140625	1741.659545898438	261.9489440917969	-428.9070739746094	1675.381469726562	608.010986328125	-465.9284973144531	1789.849731445312	548.6571044921875	-464.08740234375	1151.868408203125	287.8921508789062	-197.9017486572266	1737.29052734375	359.2021484375	-450.7590637207031	1717.520263671875	521.4851684570312	-445.5151977539062	1692.959228515625	627.0508422851562	-172.3851928710938	2004.187744140625	77.1146469116211	-383.6639404296875	1617.553466796875	640.635498046875	-155.4557952880859	1677.576782226562	527.8285522460938	-187.5542907714844	1596.45654296875	541.1543579101562	-169.1809539794922	1786.661376953125	474.267822265625	-454.0450744628906	1595.215209960938	474.4966125488281	-175.1995697021484	1819.567260742188	362.9470825195312	-451.1010437011719	1821.255615234375	262.2278747558594	-433.2825927734375	1496.189086914062	413.178466796875	-177.7151489257812	1933.848388671875	51.20187759399414	-439.6025695800781	1474.927734375	496.4451904296875	-176.6865234375	1762.030883789062	41.95109176635742	-317.1242980957031	1395.43505859375	395.4985046386719	-198.662841796875	1383.247802734375	474.331787109375	-197.6005249023438	1796.01513671875	86.08182525634766	-406.0787658691406	1222.597534179688	414.4369506835938	-229.5835571289062	1166.686157226562	209.1726379394531	-248.1440734863281	1207.220825195312	461.7427062988281	-293.8265686035156	1181.561401367188	445.1706237792969	-325.1636047363281	1181.2080078125	466.2983093261719	-268.324951171875	1747.758056640625	36.48763275146484	-369.9973754882812
